<?xml version="1.0" encoding="UTF-8" standalone="no"?>
<svg
   xmlns:dc="http://purl.org/dc/elements/1.1/"
   xmlns:cc="http://creativecommons.org/ns#"
   xmlns:rdf="http://www.w3.org/1999/02/22-rdf-syntax-ns#"
   xmlns:svg="http://www.w3.org/2000/svg"
   xmlns="http://www.w3.org/2000/svg"
   xmlns:sodipodi="http://sodipodi.sourceforge.net/DTD/sodipodi-0.dtd"
   xmlns:inkscape="http://www.inkscape.org/namespaces/inkscape"
   width="200"
   height="250"
   viewBox="0 0 236.45812 295.57268"
   version="1.1"
   id="svg8"
   inkscape:version="0.92.1 r15371"
   sodipodi:docname="Logotipo.svg">
  <defs
     id="defs2">
    <inkscape:path-effect
       effect="spiro"
       id="path-effect23"
       is_visible="true" />
  </defs>
  <sodipodi:namedview
     id="base"
     pagecolor="#ffffff"
     bordercolor="#666666"
     borderopacity="1.0"
     inkscape:pageopacity="0.0"
     inkscape:pageshadow="2"
     inkscape:zoom="1.979899"
     inkscape:cx="202.75151"
     inkscape:cy="145.83544"
     inkscape:document-units="mm"
     inkscape:current-layer="layer1"
     showgrid="false"
     inkscape:window-width="1366"
     inkscape:window-height="705"
     inkscape:window-x="-8"
     inkscape:window-y="-8"
     inkscape:window-maximized="1"
     scale-x="4.4685"
     inkscape:snap-text-baseline="true" />
  <metadata
     id="metadata5">
    <rdf:RDF>
      <cc:Work
         rdf:about="">
        <dc:format>image/svg+xml</dc:format>
        <dc:type
           rdf:resource="http://purl.org/dc/dcmitype/StillImage" />
        <dc:title />
      </cc:Work>
    </rdf:RDF>
  </metadata>
  <g
     inkscape:label="Capa 1"
     inkscape:groupmode="layer"
     id="layer1"
     transform="translate(0,-57.79164)">
    <ellipse
       style="fill:#00ffff;stroke:#000000;stroke-width:0.51333302"
       id="path10"
       ry="94.097939"
       rx="71.938103"
       cy="183.83492"
       cx="121.59869" />
    <path
       id="path12"
       style="fill:#00ffff;stroke:#000000;stroke-width:0.51333302px;stroke-linecap:butt;stroke-linejoin:miter;stroke-opacity:1"
       d="M 62.433889,238.08078 27.91248,319.09082 96.85139,272.49538 C 93.087256,270.1035 68.538664,244.78374 62.433889,238.08078 Z m 34.417501,34.4146 c 0.474599,0.30159 0.63726,0.25998 0.371721,-0.25148 z"
       inkscape:connector-curvature="0" />
    <path
       style="fill:#000000;stroke:#000000;stroke-width:0.51333302px;stroke-linecap:butt;stroke-linejoin:miter;stroke-opacity:1"
       d="m 98.419945,207.09374 c 3.021065,-2.73069 6.132765,-5.38567 9.568285,-7.57215 3.43552,-2.18648 7.21837,-3.90153 11.22804,-4.61285 4.00968,-0.71133 8.26208,-0.37558 11.94882,1.35401 3.68673,1.72959 6.74784,4.92493 7.93136,8.82143 0.29729,0.97876 0.47738,1.99307 0.53521,3.01435 3.57984,0.52011 6.9412,2.42097 9.23191,5.22069 2.29071,2.79972 3.48836,6.47092 3.28933,10.08287 -0.19903,3.61194 -1.7928,7.12932 -4.37725,9.6604 -2.58445,2.53108 -6.13432,4.05112 -9.74963,4.17475 -2.45178,0.0838 -4.88825,-0.44964 -7.2229,-1.20305 -2.33465,-0.75341 -4.59169,-1.72695 -6.89915,-2.55993 -2.30746,-0.83298 -4.68886,-1.52962 -7.13629,-1.69791 -2.44743,-0.16828 -4.98069,0.22025 -7.10817,1.44175 -1.60834,0.92343 -2.9188,2.2756 -4.22821,3.58897 -1.3094,1.31337 -2.67044,2.62731 -4.33527,3.44452 -1.820433,0.89359 -3.939404,1.13572 -5.930837,0.75273 -1.991432,-0.38299 -3.849808,-1.37808 -5.328218,-2.76617 -1.47841,-1.38808 -2.580102,-3.16006 -3.247605,-5.07499 -0.667503,-1.91492 -0.906382,-3.96943 -0.777359,-5.99325 0.258046,-4.04764 1.968947,-7.90083 4.307609,-11.21452 2.338661,-3.3137 5.291452,-6.14198 8.300325,-8.86165 z"
       id="path21"
       inkscape:connector-curvature="0"
       inkscape:original-d="m 98.419945,207.09374 c 13.559205,-0.67057 27.118035,-1.34041 40.676505,-2.00956 13.55846,-0.66916 0.35719,2.00887 0.53521,3.01435 -0.53484,9.71218 7.84949,30.47912 -1.60564,29.13871 -9.45513,-1.3404 -25.5124,-6.36293 -28.36651,-4.01914 -2.85412,2.34378 -7.67182,18.0868 -8.56348,7.03349 -0.89165,-11.05333 -16.235301,-32.48729 -2.676085,-33.15785 z"
       inkscape:path-effect="#path-effect23" />
    <path
       style="fill:#000000;stroke:#000000;stroke-width:0.51333302"
       id="path25"
       sodipodi:type="arc"
       sodipodi:cx="91.269913"
       sodipodi:cy="186.71677"
       sodipodi:rx="5.0845637"
       sodipodi:ry="13.119406"
       sodipodi:start="0"
       sodipodi:end="6.2785602"
       d="m 96.354476,186.71677 a 5.0845637,13.119406 0 0 1 -5.078684,13.11939 5.0845637,13.119406 0 0 1 -5.090429,-13.08905 5.0845637,13.119406 0 0 1 5.066912,-13.14967 5.0845637,13.119406 0 0 1 5.102147,13.05865 l -5.084509,0.0607 z" />
    <path
       style="fill:#000000;stroke:#000000;stroke-width:0.51333302"
       id="path27"
       sodipodi:type="arc"
       sodipodi:cx="107.52979"
       sodipodi:cy="168.73955"
       sodipodi:rx="4.5493464"
       sodipodi:ry="16.578918"
       sodipodi:start="0"
       sodipodi:end="6.2785602"
       d="m 112.07914,168.73955 a 4.5493464,16.578918 0 0 1 -4.54409,16.57891 4.5493464,16.578918 0 0 1 -4.55459,-16.54057 4.5493464,16.578918 0 0 1 4.53355,-16.61716 4.5493464,16.578918 0 0 1 4.56508,16.50214 l -4.5493,0.0767 z" />
    <path
       style="fill:#000000;stroke:#000000;stroke-width:0.51333302"
       id="path29"
       sodipodi:type="arc"
       sodipodi:cx="121.47371"
       sodipodi:cy="164.69252"
       sodipodi:rx="4.2817383"
       sodipodi:ry="15.574134"
       sodipodi:start="0"
       sodipodi:end="6.2785602"
       d="m 125.75545,164.69252 a 4.2817383,15.574134 0 0 1 -4.27679,15.57412 4.2817383,15.574134 0 0 1 -4.28668,-15.5381 4.2817383,15.574134 0 0 1 4.26688,-15.61006 4.2817383,15.574134 0 0 1 4.29654,15.50201 l -4.28169,0.072 z" />
    <path
       style="fill:#000000;stroke:#000000;stroke-width:0.51333302"
       id="path31"
       sodipodi:type="arc"
       sodipodi:cx="136.38004"
       sodipodi:cy="170.19632"
       sodipodi:rx="4.5493464"
       sodipodi:ry="14.569351"
       sodipodi:start="0"
       sodipodi:end="6.2785602"
       d="m 140.92938,170.19632 a 4.5493464,14.569351 0 0 1 -4.54408,14.56934 4.5493464,14.569351 0 0 1 -4.5546,-14.53565 4.5493464,14.569351 0 0 1 4.53355,-14.60295 4.5493464,14.569351 0 0 1 4.56508,14.50188 l -4.54929,0.0674 z" />
    <path
       style="fill:#000000;stroke:#000000;stroke-width:0.51333302"
       id="path33"
       sodipodi:type="arc"
       sodipodi:cx="91.487869"
       sodipodi:cy="166.32751"
       sodipodi:rx="0.60211939"
       sodipodi:ry="3.8935339"
       sodipodi:start="0"
       sodipodi:end="6.2785602"
       d="m 92.089989,166.32751 a 0.60211939,3.8935339 0 0 1 -0.601424,3.89354 0.60211939,3.8935339 0 0 1 -0.602814,-3.88453 0.60211939,3.8935339 0 0 1 0.60003,-3.90252 0.60211939,3.8935339 0 0 1 0.604201,3.87551 l -0.602113,0.018 z" />
    <path
       style="fill:#000000;stroke:#000000;stroke-width:0.51333302"
       id="path35"
       sodipodi:type="arc"
       sodipodi:cx="107.73525"
       sodipodi:cy="144.63632"
       sodipodi:rx="0.80282587"
       sodipodi:ry="3.767936"
       sodipodi:start="0"
       sodipodi:end="6.2785602"
       d="m 108.53808,144.63632 a 0.80282587,3.767936 0 0 1 -0.8019,3.76794 0.80282587,3.767936 0 0 1 -0.80375,-3.75922 0.80282587,3.767936 0 0 1 0.80004,-3.77663 0.80282587,3.767936 0 0 1 0.8056,3.75048 l -0.80282,0.0174 z" />
    <path
       style="fill:#000000;stroke:#000000;stroke-width:0.51333302"
       id="path37"
       sodipodi:type="arc"
       sodipodi:cx="121.79101"
       sodipodi:cy="142.16582"
       sodipodi:rx="0.86972803"
       sodipodi:ry="4.2703276"
       sodipodi:start="0"
       sodipodi:end="6.2785602"
       d="m 122.66074,142.16582 a 0.86972803,4.2703276 0 0 1 -0.86873,4.27032 0.86972803,4.2703276 0 0 1 -0.87073,-4.26045 0.86972803,4.2703276 0 0 1 0.86671,-4.28017 0.86972803,4.2703276 0 0 1 0.87274,4.25055 l -0.86972,0.0197 z" />
    <path
       style="fill:#000000;stroke:#000000;stroke-width:0.51333302"
       id="path39"
       sodipodi:type="arc"
       sodipodi:cx="136.61992"
       sodipodi:cy="145.83032"
       sodipodi:rx="0.86972803"
       sodipodi:ry="5.2751107"
       sodipodi:start="0"
       sodipodi:end="6.2785602"
       d="m 137.48965,145.83032 a 0.86972803,5.2751107 0 0 1 -0.86873,5.27511 0.86972803,5.2751107 0 0 1 -0.87073,-5.26291 0.86972803,5.2751107 0 0 1 0.86671,-5.28728 0.86972803,5.2751107 0 0 1 0.87274,5.25068 l -0.86972,0.0244 z" />
    <path
       style="fill:none;stroke:#000000;stroke-width:0.51333302px;stroke-linecap:butt;stroke-linejoin:miter;stroke-opacity:1"
       d="m 91.273455,162.95329 0.485042,0.18848 c -0.07663,-0.48789 -0.124311,-0.78543 -0.284333,-1.82117 z"
       id="path41"
       inkscape:connector-curvature="0"
       sodipodi:nodetypes="cccc" />
    <path
       style="fill:none;stroke:#000000;stroke-width:0.51333302px;stroke-linecap:butt;stroke-linejoin:miter;stroke-opacity:1"
       d="m 107.43876,141.10594 0.28434,-1.22458 0.38469,1.47576 z"
       id="path43"
       inkscape:connector-curvature="0"
       sodipodi:nodetypes="cccc" />
    <path
       style="fill:none;stroke:#000000;stroke-width:0.51333302px;stroke-linecap:butt;stroke-linejoin:miter;stroke-opacity:1"
       d="m 121.5785,138.06125 0.5854,0.56519 -0.36796,-1.35016 z"
       id="path45"
       inkscape:connector-curvature="0"
       sodipodi:nodetypes="cccc" />
    <path
       style="fill:none;stroke:#000000;stroke-width:0.51333302px;stroke-linecap:butt;stroke-linejoin:miter;stroke-opacity:1"
       d="m 136.35231,141.50794 0.60213,0.12572 -0.37,-1.91183 z"
       id="path47"
       inkscape:connector-curvature="0"
       sodipodi:nodetypes="cccc" />
    <path
       id="flowRoot56"
       style="font-style:normal;font-weight:normal;font-size:40px;line-height:1.25;font-family:sans-serif;letter-spacing:0px;word-spacing:0px;fill:#000000;fill-opacity:1;stroke:none;stroke-width:0.51333302"
       d="m 131.97722,282.97691 v 0.69649 c 0.0578,-3.6e-4 0.11554,4.2e-4 0.17342,0 0.39994,-0.12017 0.79908,-0.19859 1.20226,-0.22118 v -0.47531 z m -10.91249,44.59529 -0.16316,0.31459 c 0.22283,-0.0702 0.44492,-0.15074 0.66662,-0.23633 -0.11371,-0.0545 -0.29119,-0.0765 -0.50346,-0.0785 z m -2.86841,0.15391 c -0.0655,0.006 -0.1307,0.006 -0.1961,0.0103 -0.0902,0.15126 -0.17845,0.3066 -0.27076,0.45334 0.37382,0.0103 0.74698,0.0103 1.12031,-0.006 v -0.40389 c -0.30413,0.0213 -0.54463,0.0133 -0.65345,-0.0537 z"
       inkscape:connector-curvature="0" />
    <flowRoot
       xml:space="preserve"
       id="flowRoot32"
       style="font-style:normal;font-weight:normal;font-size:40px;line-height:1.25;font-family:sans-serif;letter-spacing:0px;word-spacing:0px;fill:#000000;fill-opacity:1;stroke:none"
       transform="matrix(1.1822907,0,0,1.1822907,0,57.79164)"><flowRegion
         id="flowRegion34"><rect
           id="rect36"
           width="115.66247"
           height="40.406101"
           x="66.670067"
           y="194.94669" /></flowRegion><flowPara
         id="flowPara38">UUuuUU</flowPara></flowRoot>    <text
       xml:space="preserve"
       style="font-style:normal;font-weight:normal;font-size:25.45168686px;line-height:1.25;font-family:sans-serif;letter-spacing:0px;word-spacing:0px;fill:#000080;fill-opacity:1;stroke:none;stroke-width:0.6362921;"
       x="118.02952"
       y="267.29556"
       id="text42"
       transform="scale(0.78408374,1.275374)"><tspan
         sodipodi:role="line"
         id="tspan40"
         x="118.02952"
         y="267.29556"
         style="stroke-width:0.6362921;fill:#000080;">Urban Jungle</tspan></text>
    <path
       sodipodi:type="star"
       style="fill:#008000;stroke:#000000;stroke-width:1.18229067"
       id="path83"
       sodipodi:sides="5"
       sodipodi:cx="29.857349"
       sodipodi:cy="107.9369"
       sodipodi:r1="28.293678"
       sodipodi:r2="14.146839"
       sodipodi:arg1="-0.12697279"
       sodipodi:arg2="0.50134574"
       inkscape:flatsided="false"
       inkscape:rounded="0"
       inkscape:randomized="0"
       d="M 57.923257,104.35402 42.26323,114.73595 41.937715,133.52199 27.22469,121.83662 9.257518,127.33224 15.824395,109.72834 5.0455878,94.338783 23.817167,95.144351 35.122669,80.137461 40.157265,98.239228 Z"
       inkscape:transform-center-x="-1.6270743"
       inkscape:transform-center-y="-1.1071698" />
    <path
       sodipodi:type="star"
       style="fill:#008000;stroke:#000000;stroke-width:1.18229067"
       id="path85"
       sodipodi:sides="5"
       sodipodi:cx="210.19573"
       sodipodi:cy="80.468137"
       sodipodi:r1="17.193272"
       sodipodi:r2="8.5966358"
       sodipodi:arg1="1.925502"
       sodipodi:arg2="2.5538205"
       inkscape:flatsided="false"
       inkscape:rounded="0"
       inkscape:randomized="0"
       d="m 204.22425,96.591109 -1.18246,-11.356062 -10.02521,-5.463842 10.43486,-4.633804 2.09846,-11.22296 7.63156,8.492214 11.32213,-1.472329 -5.7183,9.882281 4.899,10.31301 -11.16565,-2.384628 z"
       inkscape:transform-center-x="1.4356319"
       inkscape:transform-center-y="-0.21536277" />
    <path
       sodipodi:type="star"
       style="fill:#008000;stroke:#000000;stroke-width:1.18229067"
       id="path87"
       sodipodi:sides="5"
       sodipodi:cx="51.354645"
       sodipodi:cy="335.44992"
       sodipodi:r1="10.765221"
       sodipodi:r2="5.3826103"
       sodipodi:arg1="0.055498505"
       sodipodi:arg2="0.68381704"
       inkscape:flatsided="false"
       inkscape:rounded="0"
       inkscape:randomized="0"
       d="m 62.103291,336.04707 -6.576225,2.80335 -1.418827,7.0066 -4.698312,-5.38808 -7.102114,0.81577 3.672509,-6.13336 -2.97052,-6.50243 6.968046,1.59745 5.266232,-4.83449 0.633981,7.12064 z"
       inkscape:transform-center-x="-0.85090902"
       inkscape:transform-center-y="0.18453797" />
    <path
       sodipodi:type="star"
       style="fill:#008000;stroke:#000000;stroke-width:1.18229067"
       id="path89"
       sodipodi:sides="5"
       sodipodi:cx="199.4471"
       sodipodi:cy="292.45532"
       sodipodi:r1="25.334801"
       sodipodi:r2="12.667401"
       sodipodi:arg1="-0.78539816"
       sodipodi:arg2="-0.15707963"
       inkscape:flatsided="false"
       inkscape:rounded="0"
       inkscape:randomized="0"
       d="m 217.36151,274.54091 -5.40297,15.93279 10.06203,13.48338 -16.82259,-0.21502 -9.71412,13.73615 -4.99397,-16.06568 -16.06568,-4.99397 13.73615,-9.71412 -0.21502,-16.82259 13.48338,10.06203 z"
       inkscape:transform-center-x="1.2247006"
       inkscape:transform-center-y="1.2247153" />
  </g>
</svg>
